<svg version="1.1" xmlns="http://www.w3.org/2000/svg" xmlns:xlink="http://www.w3.org/1999/xlink" width="1061" height="837"><defs/><g><g><rect fill="#C0C0C0" stroke="none" x="47" y="63" width="99.19999999999999" height="15" transform="matrix(1 0 0 1 -30 -46)" fill-opacity="0.2"/></g><g><rect fill="#C0C0C0" stroke="none" x="47" y="77" width="248" height="386" transform="matrix(1 0 0 1 -30 -46)" fill-opacity="0.2"/></g><g><rect fill="#ffffff" stroke="none" x="40" y="71" width="248" height="385" transform="matrix(1 0 0 1 -30 -46)"/></g><g><path fill="none" stroke="#000000" paint-order="fill stroke markers" d=" M 10 25 L 258 25 L 258 410 L 10 410 L 10 25 Z Z" stroke-miterlimit="10" stroke-dasharray=""/></g><g><rect fill="#ffffff" stroke="none" x="40" y="56" width="99.19999999999999" height="15" transform="matrix(1 0 0 1 -30 -46)"/></g><g><path fill="none" stroke="#000000" paint-order="fill stroke markers" d=" M 10 10 L 109.19999999999999 10 L 109.19999999999999 25 L 10 25 L 10 10 Z Z" stroke-miterlimit="10" stroke-dasharray=""/></g><g><rect fill="#ffffff" stroke="none" x="40" y="70" width="248" height="386" transform="matrix(1 0 0 1 -30 -46)"/></g><g><path fill="none" stroke="#000000" paint-order="fill stroke markers" d=" M 10 24 L 258 24 L 258 410 L 10 410 L 10 24 Z Z" stroke-miterlimit="10" stroke-dasharray=""/></g><g><g><path fill="none" stroke="none"/><text fill="#000000" stroke="none" font-family="Arial" font-size="13px" font-style="normal" font-weight="bold" text-decoration="undefined" x="164.5" y="84.5" text-anchor="middle" dominant-baseline="central" transform="matrix(1 0 0 1 -30 -46)">Client</text></g></g><g><rect fill="#C0C0C0" stroke="none" x="399" y="71" width="118.39999999999998" height="15" transform="matrix(1 0 0 1 -30 -46)" fill-opacity="0.2"/></g><g><rect fill="#C0C0C0" stroke="none" x="399" y="85" width="296" height="362" transform="matrix(1 0 0 1 -30 -46)" fill-opacity="0.2"/></g><g><rect fill="#ffffff" stroke="none" x="392" y="79" width="296" height="361" transform="matrix(1 0 0 1 -30 -46)"/></g><g><path fill="none" stroke="#000000" paint-order="fill stroke markers" d=" M 362 33 L 658 33 L 658 394 L 362 394 L 362 33 Z Z" stroke-miterlimit="10" stroke-dasharray=""/></g><g><rect fill="#ffffff" stroke="none" x="392" y="64" width="118.39999999999998" height="15" transform="matrix(1 0 0 1 -30 -46)"/></g><g><path fill="none" stroke="#000000" paint-order="fill stroke markers" d=" M 362 18 L 480.4 18 L 480.4 33 L 362 33 L 362 18 Z Z" stroke-miterlimit="10" stroke-dasharray=""/></g><g><rect fill="#ffffff" stroke="none" x="392" y="78" width="296" height="362" transform="matrix(1 0 0 1 -30 -46)"/></g><g><path fill="none" stroke="#000000" paint-order="fill stroke markers" d=" M 362 32 L 658 32 L 658 394 L 362 394 L 362 32 Z Z" stroke-miterlimit="10" stroke-dasharray=""/></g><g><g><path fill="none" stroke="none"/><text fill="#000000" stroke="none" font-family="Arial" font-size="13px" font-style="normal" font-weight="bold" text-decoration="undefined" x="540.5" y="92.5" text-anchor="middle" dominant-baseline="central" transform="matrix(1 0 0 1 -30 -46)">Business</text></g></g><g><rect fill="#C0C0C0" stroke="none" x="791" y="71" width="118.39999999999998" height="15" transform="matrix(1 0 0 1 -30 -46)" fill-opacity="0.2"/></g><g><rect fill="#C0C0C0" stroke="none" x="791" y="85" width="296" height="362" transform="matrix(1 0 0 1 -30 -46)" fill-opacity="0.2"/></g><g><rect fill="#ffffff" stroke="none" x="784" y="79" width="296" height="361" transform="matrix(1 0 0 1 -30 -46)"/></g><g><path fill="none" stroke="#000000" paint-order="fill stroke markers" d=" M 754 33 L 1050 33 L 1050 394 L 754 394 L 754 33 Z Z" stroke-miterlimit="10" stroke-dasharray=""/></g><g><rect fill="#ffffff" stroke="none" x="784" y="64" width="118.39999999999998" height="15" transform="matrix(1 0 0 1 -30 -46)"/></g><g><path fill="none" stroke="#000000" paint-order="fill stroke markers" d=" M 754 18 L 872.4 18 L 872.4 33 L 754 33 L 754 18 Z Z" stroke-miterlimit="10" stroke-dasharray=""/></g><g><rect fill="#ffffff" stroke="none" x="784" y="78" width="296" height="362" transform="matrix(1 0 0 1 -30 -46)"/></g><g><path fill="none" stroke="#000000" paint-order="fill stroke markers" d=" M 754 32 L 1050 32 L 1050 394 L 754 394 L 754 32 Z Z" stroke-miterlimit="10" stroke-dasharray=""/></g><g><g><path fill="none" stroke="none"/><text fill="#000000" stroke="none" font-family="Arial" font-size="13px" font-style="normal" font-weight="bold" text-decoration="undefined" x="932.5" y="92.5" text-anchor="middle" dominant-baseline="central" transform="matrix(1 0 0 1 -30 -46)">Data</text></g></g><g><path fill="none" stroke="#000000" paint-order="fill stroke markers" d=" M 259 209 L 361 208" stroke-miterlimit="10" stroke-dasharray="3"/></g><g><path fill="none" stroke="#000000" paint-order="fill stroke markers" d=" M 350.87908130816464 212.3089447470648 L 361 208 L 350.79654571075787 203.8903138115732" stroke-miterlimit="10" stroke-dasharray=""/></g><g><rect fill="#ffffff" stroke="none" x="323" y="233" width="35.0517578125" height="13" transform="matrix(1 0 0 1 -30 -46)"/></g><g><g><path fill="none" stroke="none"/><text fill="#000000" stroke="none" font-family="Arial" font-size="13px" font-style="normal" font-weight="normal" text-decoration="undefined" x="340.52587890625" y="239.5" text-anchor="middle" dominant-baseline="central" transform="matrix(1 0 0 1 -30 -46)">+uses</text></g></g><g><path fill="none" stroke="#000000" paint-order="fill stroke markers" d=" M 659 206 L 753 206" stroke-miterlimit="10" stroke-dasharray="3"/></g><g><path fill="none" stroke="#000000" paint-order="fill stroke markers" d=" M 742.8373251423759 210.209517756016 L 753 206 L 742.8373251423758 201.790482243984" stroke-miterlimit="10" stroke-dasharray=""/></g><g><rect fill="#ffffff" stroke="none" x="719" y="231" width="35.0517578125" height="13" transform="matrix(1 0 0 1 -30 -46)"/></g><g><g><path fill="none" stroke="none"/><text fill="#000000" stroke="none" font-family="Arial" font-size="13px" font-style="normal" font-weight="normal" text-decoration="undefined" x="736.52587890625" y="237.5" text-anchor="middle" dominant-baseline="central" transform="matrix(1 0 0 1 -30 -46)">+uses</text></g></g><g><rect fill="#C0C0C0" stroke="none" x="273" y="543" width="152.18359375" height="45" transform="matrix(1 0 0 1 -30 -46)" fill-opacity="0.2"/></g><g><rect fill="#ffffff" stroke="none" x="266" y="536" width="152.18359375" height="45" transform="matrix(1 0 0 1 -30 -46)"/></g><g><path fill="none" stroke="#000000" paint-order="fill stroke markers" d=" M 236 490 L 388.18359375 490 L 388.18359375 535 L 236 535 L 236 490 Z Z" stroke-miterlimit="10" stroke-dasharray=""/></g><g><rect fill="#ffffff" stroke="none" x="256" y="543" width="20" height="10" transform="matrix(1 0 0 1 -30 -46)"/></g><g><path fill="none" stroke="#000000" paint-order="fill stroke markers" d=" M 226 497 L 246 497 L 246 507 L 226 507 L 226 497 Z Z" stroke-miterlimit="10" stroke-dasharray=""/></g><g><rect fill="#ffffff" stroke="none" x="256" y="563" width="20" height="10" transform="matrix(1 0 0 1 -30 -46)"/></g><g><path fill="none" stroke="#000000" paint-order="fill stroke markers" d=" M 226 517 L 246 517 L 246 527 L 226 527 L 226 517 Z Z" stroke-miterlimit="10" stroke-dasharray=""/></g><g><g><path fill="none" stroke="none"/><text fill="#000000" stroke="none" font-family="Arial" font-size="13px" font-style="normal" font-weight="bold" text-decoration="undefined" x="347.591796875" y="549.5" text-anchor="middle" dominant-baseline="central" transform="matrix(1 0 0 1 -30 -46)">API Gatewaway</text><path fill="none" stroke="#000000" paint-order="fill stroke markers" d=" M 365.640380859375 510 L 269.543212890625 510" stroke-miterlimit="10" stroke-dasharray=""/></g></g><g><path fill="none" stroke="#000000" paint-order="fill stroke markers" d=" M 249 411 L 294 489" stroke-miterlimit="10" stroke-dasharray="3"/></g><g><path fill="none" stroke="#000000" paint-order="fill stroke markers" d=" M 285.2752595816545 482.3008280636717 L 294 489 L 292.56770679060793 478.0936469815832" stroke-miterlimit="10" stroke-dasharray=""/></g><g><path fill="none" stroke="#000000" paint-order="fill stroke markers" d=" M 322 489 L 385 395" stroke-miterlimit="10" stroke-dasharray="3"/></g><g><path fill="none" stroke="#000000" paint-order="fill stroke markers" d=" M 382.8388510137728 405.78561241002706 L 385 395 L 375.8452572223044 401.0984165710642" stroke-miterlimit="10" stroke-dasharray=""/></g><g><path fill="#FFF5D8" stroke="none" paint-order="stroke fill markers" d=" M 154 698 L 230.92626953125 698 L 240.92626953125 708 L 240.92626953125 826 L 154 826 L 154 698"/></g><g><path fill="none" stroke="#000000" paint-order="fill stroke markers" d=" M 154 698 L 230.92626953125 698 L 240.92626953125 708 L 240.92626953125 826 L 154 826 L 154 698 L 154 698" stroke-miterlimit="10" stroke-dasharray=""/></g><g><path fill="none" stroke="#000000" paint-order="fill stroke markers" d=" M 230.92626953125 698 L 230.92626953125 708 L 240.92626953125 708 L 230.92626953125 698" stroke-miterlimit="10" stroke-dasharray=""/></g><g><g><path fill="none" stroke="none"/><text fill="#000000" stroke="none" font-family="Arial" font-size="13px" font-style="normal" font-weight="normal" text-decoration="undefined" x="189" y="749" text-anchor="start" dominant-baseline="text-before-edge" transform="matrix(1 0 0 1 -30 -46)">Además,</text><text fill="#000000" stroke="none" font-family="Arial" font-size="13px" font-style="normal" font-weight="normal" text-decoration="undefined" x="189" y="762" text-anchor="start" dominant-baseline="text-before-edge" transform="matrix(1 0 0 1 -30 -46)">añadiremos</text><text fill="#000000" stroke="none" font-family="Arial" font-size="13px" font-style="normal" font-weight="normal" text-decoration="undefined" x="189" y="775" text-anchor="start" dominant-baseline="text-before-edge" transform="matrix(1 0 0 1 -30 -46)">una lógica de</text><text fill="#000000" stroke="none" font-family="Arial" font-size="13px" font-style="normal" font-weight="normal" text-decoration="undefined" x="189" y="788" text-anchor="start" dominant-baseline="text-before-edge" transform="matrix(1 0 0 1 -30 -46)">3 intentos</text><text fill="#000000" stroke="none" font-family="Arial" font-size="13px" font-style="normal" font-weight="normal" text-decoration="undefined" x="189" y="801" text-anchor="start" dominant-baseline="text-before-edge" transform="matrix(1 0 0 1 -30 -46)">por sesión.</text><text fill="#000000" stroke="none" font-family="Arial" font-size="13px" font-style="normal" font-weight="normal" text-decoration="undefined" x="189" y="814" text-anchor="start" dominant-baseline="text-before-edge" transform="matrix(1 0 0 1 -30 -46)">Esto se</text><text fill="#000000" stroke="none" font-family="Arial" font-size="13px" font-style="normal" font-weight="normal" text-decoration="undefined" x="189" y="827" text-anchor="start" dominant-baseline="text-before-edge" transform="matrix(1 0 0 1 -30 -46)">podría</text><text fill="#000000" stroke="none" font-family="Arial" font-size="13px" font-style="normal" font-weight="normal" text-decoration="undefined" x="189" y="840" text-anchor="start" dominant-baseline="text-before-edge" transform="matrix(1 0 0 1 -30 -46)">modelar ya</text></g></g><g><rect fill="#C0C0C0" stroke="none" x="89" y="175" width="152.18359375" height="45" transform="matrix(1 0 0 1 -30 -46)" fill-opacity="0.2"/></g><g><rect fill="#ffffff" stroke="none" x="82" y="168" width="152.18359375" height="45" transform="matrix(1 0 0 1 -30 -46)"/></g><g><path fill="none" stroke="#000000" paint-order="fill stroke markers" d=" M 52 122 L 204.18359375 122 L 204.18359375 167 L 52 167 L 52 122 Z Z" stroke-miterlimit="10" stroke-dasharray=""/></g><g><rect fill="#ffffff" stroke="none" x="72" y="175" width="20" height="10" transform="matrix(1 0 0 1 -30 -46)"/></g><g><path fill="none" stroke="#000000" paint-order="fill stroke markers" d=" M 42 129 L 62 129 L 62 139 L 42 139 L 42 129 Z Z" stroke-miterlimit="10" stroke-dasharray=""/></g><g><rect fill="#ffffff" stroke="none" x="72" y="195" width="20" height="10" transform="matrix(1 0 0 1 -30 -46)"/></g><g><path fill="none" stroke="#000000" paint-order="fill stroke markers" d=" M 42 149 L 62 149 L 62 159 L 42 159 L 42 149 Z Z" stroke-miterlimit="10" stroke-dasharray=""/></g><g><g><path fill="none" stroke="none"/><text fill="#000000" stroke="none" font-family="Arial" font-size="13px" font-style="normal" font-weight="bold" text-decoration="undefined" x="163.591796875" y="181.5" text-anchor="middle" dominant-baseline="central" transform="matrix(1 0 0 1 -30 -46)">WebClient</text><path fill="none" stroke="#000000" paint-order="fill stroke markers" d=" M 165.250732421875 142 L 101.932861328125 142" stroke-miterlimit="10" stroke-dasharray=""/></g></g><g><rect fill="#C0C0C0" stroke="none" x="89" y="263" width="152.18359375" height="45" transform="matrix(1 0 0 1 -30 -46)" fill-opacity="0.2"/></g><g><rect fill="#ffffff" stroke="none" x="82" y="256" width="152.18359375" height="45" transform="matrix(1 0 0 1 -30 -46)"/></g><g><path fill="none" stroke="#000000" paint-order="fill stroke markers" d=" M 52 210 L 204.18359375 210 L 204.18359375 255 L 52 255 L 52 210 Z Z" stroke-miterlimit="10" stroke-dasharray=""/></g><g><rect fill="#ffffff" stroke="none" x="72" y="263" width="20" height="10" transform="matrix(1 0 0 1 -30 -46)"/></g><g><path fill="none" stroke="#000000" paint-order="fill stroke markers" d=" M 42 217 L 62 217 L 62 227 L 42 227 L 42 217 Z Z" stroke-miterlimit="10" stroke-dasharray=""/></g><g><rect fill="#ffffff" stroke="none" x="72" y="283" width="20" height="10" transform="matrix(1 0 0 1 -30 -46)"/></g><g><path fill="none" stroke="#000000" paint-order="fill stroke markers" d=" M 42 237 L 62 237 L 62 247 L 42 247 L 42 237 Z Z" stroke-miterlimit="10" stroke-dasharray=""/></g><g><g><path fill="none" stroke="none"/><text fill="#000000" stroke="none" font-family="Arial" font-size="13px" font-style="normal" font-weight="bold" text-decoration="undefined" x="163.591796875" y="269.5" text-anchor="middle" dominant-baseline="central" transform="matrix(1 0 0 1 -30 -46)">MobileClient</text><path fill="none" stroke="#000000" paint-order="fill stroke markers" d=" M 172.22998046875 230 L 94.95361328125 230" stroke-miterlimit="10" stroke-dasharray=""/></g></g><g><path fill="#FCB9B9" stroke="none" paint-order="stroke fill markers" d=" M 154 578 L 575 578 L 585 588 L 585 681 L 154 681 L 154 578"/></g><g><path fill="none" stroke="#000000" paint-order="fill stroke markers" d=" M 154 578 L 575 578 L 585 588 L 585 681 L 154 681 L 154 578 L 154 578" stroke-miterlimit="10" stroke-dasharray=""/></g><g><path fill="none" stroke="#000000" paint-order="fill stroke markers" d=" M 575 578 L 575 588 L 585 588 L 575 578" stroke-miterlimit="10" stroke-dasharray=""/></g><g><g><path fill="none" stroke="none"/><text fill="#000000" stroke="none" font-family="Arial" font-size="13px" font-style="normal" font-weight="normal" text-decoration="undefined" x="189" y="629" text-anchor="start" dominant-baseline="text-before-edge" transform="matrix(1 0 0 1 -30 -46)">En caso de tener que agregar algo esta iteracion:</text></g></g><g><g><path fill="none" stroke="none"/></g></g><g><g><path fill="none" stroke="none"/><text fill="#000000" stroke="none" font-family="Arial" font-size="13px" font-style="normal" font-weight="normal" text-decoration="undefined" x="189" y="646" text-anchor="start" dominant-baseline="text-before-edge" transform="matrix(1 0 0 1 -30 -46)"> - Emplear DDD</text></g></g><g><g><path fill="none" stroke="none"/></g></g><g><g><path fill="none" stroke="none"/><text fill="#000000" stroke="none" font-family="Arial" font-size="13px" font-style="normal" font-weight="normal" text-decoration="undefined" x="189" y="663" text-anchor="start" dominant-baseline="text-before-edge" transform="matrix(1 0 0 1 -30 -46)">- Nombrar ya las clases y decir lo que va a hacer cada una y cuales son</text><text fill="#000000" stroke="none" font-family="Arial" font-size="13px" font-style="normal" font-weight="normal" text-decoration="undefined" x="189" y="676" text-anchor="start" dominant-baseline="text-before-edge" transform="matrix(1 0 0 1 -30 -46)">MS</text></g></g></g></svg>