<svg version="1.1" xmlns="http://www.w3.org/2000/svg" xmlns:xlink="http://www.w3.org/1999/xlink" width="1069" height="537"><defs/><g><g><rect fill="#C0C0C0" stroke="none" x="47" y="71" width="99.19999999999999" height="15" transform="matrix(1 0 0 1 -30 -54)" fill-opacity="0.2"/></g><g><rect fill="#C0C0C0" stroke="none" x="47" y="85" width="248" height="386" transform="matrix(1 0 0 1 -30 -54)" fill-opacity="0.2"/></g><g><rect fill="#ffffff" stroke="none" x="40" y="79" width="248" height="385" transform="matrix(1 0 0 1 -30 -54)"/></g><g><path fill="none" stroke="#000000" paint-order="fill stroke markers" d=" M 10 25 L 258 25 L 258 410 L 10 410 L 10 25 Z Z" stroke-miterlimit="10" stroke-dasharray=""/></g><g><rect fill="#ffffff" stroke="none" x="40" y="64" width="99.19999999999999" height="15" transform="matrix(1 0 0 1 -30 -54)"/></g><g><path fill="none" stroke="#000000" paint-order="fill stroke markers" d=" M 10 10 L 109.19999999999999 10 L 109.19999999999999 25 L 10 25 L 10 10 Z Z" stroke-miterlimit="10" stroke-dasharray=""/></g><g><rect fill="#ffffff" stroke="none" x="40" y="78" width="248" height="386" transform="matrix(1 0 0 1 -30 -54)"/></g><g><path fill="none" stroke="#000000" paint-order="fill stroke markers" d=" M 10 24 L 258 24 L 258 410 L 10 410 L 10 24 Z Z" stroke-miterlimit="10" stroke-dasharray=""/></g><g><g><path fill="none" stroke="none"/><text fill="#000000" stroke="none" font-family="Arial" font-size="13px" font-style="normal" font-weight="bold" text-decoration="undefined" x="164.5" y="92.5" text-anchor="middle" dominant-baseline="central" transform="matrix(1 0 0 1 -30 -54)">Cliente</text></g></g><g><rect fill="#C0C0C0" stroke="none" x="407" y="79" width="118.39999999999998" height="15" transform="matrix(1 0 0 1 -30 -54)" fill-opacity="0.2"/></g><g><rect fill="#C0C0C0" stroke="none" x="407" y="93" width="296" height="362" transform="matrix(1 0 0 1 -30 -54)" fill-opacity="0.2"/></g><g><rect fill="#ffffff" stroke="none" x="400" y="87" width="296" height="361" transform="matrix(1 0 0 1 -30 -54)"/></g><g><path fill="none" stroke="#000000" paint-order="fill stroke markers" d=" M 370 33 L 666 33 L 666 394 L 370 394 L 370 33 Z Z" stroke-miterlimit="10" stroke-dasharray=""/></g><g><rect fill="#ffffff" stroke="none" x="400" y="72" width="118.39999999999998" height="15" transform="matrix(1 0 0 1 -30 -54)"/></g><g><path fill="none" stroke="#000000" paint-order="fill stroke markers" d=" M 370 18 L 488.4 18 L 488.4 33 L 370 33 L 370 18 Z Z" stroke-miterlimit="10" stroke-dasharray=""/></g><g><rect fill="#ffffff" stroke="none" x="400" y="86" width="296" height="362" transform="matrix(1 0 0 1 -30 -54)"/></g><g><path fill="none" stroke="#000000" paint-order="fill stroke markers" d=" M 370 32 L 666 32 L 666 394 L 370 394 L 370 32 Z Z" stroke-miterlimit="10" stroke-dasharray=""/></g><g><g><path fill="none" stroke="none"/><text fill="#000000" stroke="none" font-family="Arial" font-size="13px" font-style="normal" font-weight="bold" text-decoration="undefined" x="548.5" y="100.5" text-anchor="middle" dominant-baseline="central" transform="matrix(1 0 0 1 -30 -54)">Negocio</text></g></g><g><rect fill="#C0C0C0" stroke="none" x="799" y="87" width="118.39999999999998" height="15" transform="matrix(1 0 0 1 -30 -54)" fill-opacity="0.2"/></g><g><rect fill="#C0C0C0" stroke="none" x="799" y="101" width="296" height="362" transform="matrix(1 0 0 1 -30 -54)" fill-opacity="0.2"/></g><g><rect fill="#ffffff" stroke="none" x="792" y="95" width="296" height="361" transform="matrix(1 0 0 1 -30 -54)"/></g><g><path fill="none" stroke="#000000" paint-order="fill stroke markers" d=" M 762 41 L 1058 41 L 1058 402 L 762 402 L 762 41 Z Z" stroke-miterlimit="10" stroke-dasharray=""/></g><g><rect fill="#ffffff" stroke="none" x="792" y="80" width="118.39999999999998" height="15" transform="matrix(1 0 0 1 -30 -54)"/></g><g><path fill="none" stroke="#000000" paint-order="fill stroke markers" d=" M 762 26 L 880.4 26 L 880.4 41 L 762 41 L 762 26 Z Z" stroke-miterlimit="10" stroke-dasharray=""/></g><g><rect fill="#ffffff" stroke="none" x="792" y="94" width="296" height="362" transform="matrix(1 0 0 1 -30 -54)"/></g><g><path fill="none" stroke="#000000" paint-order="fill stroke markers" d=" M 762 40 L 1058 40 L 1058 402 L 762 402 L 762 40 Z Z" stroke-miterlimit="10" stroke-dasharray=""/></g><g><g><path fill="none" stroke="none"/><text fill="#000000" stroke="none" font-family="Arial" font-size="13px" font-style="normal" font-weight="bold" text-decoration="undefined" x="940.5" y="108.5" text-anchor="middle" dominant-baseline="central" transform="matrix(1 0 0 1 -30 -54)">Datos</text></g></g><g><path fill="none" stroke="#000000" paint-order="fill stroke markers" d=" M 259 209 L 369 208" stroke-miterlimit="10" stroke-dasharray="3"/></g><g><path fill="none" stroke="#000000" paint-order="fill stroke markers" d=" M 358.87601182358804 212.3017279555861 L 369 208 L 358.799478299592 203.88304031602138" stroke-miterlimit="10" stroke-dasharray=""/></g><g><rect fill="#ffffff" stroke="none" x="327" y="241" width="35.0517578125" height="13" transform="matrix(1 0 0 1 -30 -54)"/></g><g><g><path fill="none" stroke="none"/><text fill="#000000" stroke="none" font-family="Arial" font-size="13px" font-style="normal" font-weight="normal" text-decoration="undefined" x="344.52587890625" y="247.5" text-anchor="middle" dominant-baseline="central" transform="matrix(1 0 0 1 -30 -54)">+uses</text></g></g><g><path fill="none" stroke="#000000" paint-order="fill stroke markers" d=" M 667 209 L 761 211" stroke-miterlimit="10" stroke-dasharray="3"/></g><g><path fill="none" stroke="#000000" paint-order="fill stroke markers" d=" M 750.7500807083493 214.9923870697424 L 761 211 L 750.9291685921227 206.57525653239531" stroke-miterlimit="10" stroke-dasharray=""/></g><g><rect fill="#ffffff" stroke="none" x="727" y="243" width="35.0517578125" height="13" transform="matrix(1 0 0 1 -30 -54)"/></g><g><g><path fill="none" stroke="none"/><text fill="#000000" stroke="none" font-family="Arial" font-size="13px" font-style="normal" font-weight="normal" text-decoration="undefined" x="744.52587890625" y="249.5" text-anchor="middle" dominant-baseline="central" transform="matrix(1 0 0 1 -30 -54)">+uses</text></g></g><g><rect fill="#C0C0C0" stroke="none" x="273" y="543" width="152.18359375" height="45" transform="matrix(1 0 0 1 -30 -54)" fill-opacity="0.2"/></g><g><rect fill="#ffffff" stroke="none" x="266" y="536" width="152.18359375" height="45" transform="matrix(1 0 0 1 -30 -54)"/></g><g><path fill="none" stroke="#000000" paint-order="fill stroke markers" d=" M 236 482 L 388.18359375 482 L 388.18359375 527 L 236 527 L 236 482 Z Z" stroke-miterlimit="10" stroke-dasharray=""/></g><g><rect fill="#ffffff" stroke="none" x="256" y="543" width="20" height="10" transform="matrix(1 0 0 1 -30 -54)"/></g><g><path fill="none" stroke="#000000" paint-order="fill stroke markers" d=" M 226 489 L 246 489 L 246 499 L 226 499 L 226 489 Z Z" stroke-miterlimit="10" stroke-dasharray=""/></g><g><rect fill="#ffffff" stroke="none" x="256" y="563" width="20" height="10" transform="matrix(1 0 0 1 -30 -54)"/></g><g><path fill="none" stroke="#000000" paint-order="fill stroke markers" d=" M 226 509 L 246 509 L 246 519 L 226 519 L 226 509 Z Z" stroke-miterlimit="10" stroke-dasharray=""/></g><g><g><path fill="none" stroke="none"/><text fill="#000000" stroke="none" font-family="Arial" font-size="13px" font-style="normal" font-weight="bold" text-decoration="undefined" x="347.591796875" y="549.5" text-anchor="middle" dominant-baseline="central" transform="matrix(1 0 0 1 -30 -54)">API Gatewaway</text><path fill="none" stroke="#000000" paint-order="fill stroke markers" d=" M 365.640380859375 502 L 269.543212890625 502" stroke-miterlimit="10" stroke-dasharray=""/></g></g><g><path fill="none" stroke="#000000" paint-order="fill stroke markers" d=" M 252 411 L 293 481" stroke-miterlimit="10" stroke-dasharray="3"/></g><g><path fill="none" stroke="#000000" paint-order="fill stroke markers" d=" M 284.2314296757642 474.3583003328266 L 293 481 L 291.4960753356845 470.10329358915897" stroke-miterlimit="10" stroke-dasharray=""/></g><g><path fill="none" stroke="#000000" paint-order="fill stroke markers" d=" M 323 481 L 384 395" stroke-miterlimit="10" stroke-dasharray="3"/></g><g><path fill="none" stroke="#000000" paint-order="fill stroke markers" d=" M 381.5539498795031 405.7245903794978 L 384 395 L 374.68695078988355 400.85381195546535" stroke-miterlimit="10" stroke-dasharray=""/></g></g></svg>